<svg width="50" height="50" viewBox="0 0 50 50" fill="none" xmlns="http://www.w3.org/2000/svg">
<path d="M31.25 32.75H18.75C15.2982 32.75 12.5 35.5482 12.5 39C12.5 42.4518 15.2982 45.25 18.75 45.25H31.25C34.7018 45.25 37.5 42.4518 37.5 39C37.5 35.5482 34.7018 32.75 31.25 32.75Z" fill="#1AD1A5"/>
<path d="M25 29.75C31.9036 29.75 37.5 24.1536 37.5 17.25C37.5 10.3464 31.9036 4.75 25 4.75C18.0964 4.75 12.5 10.3464 12.5 17.25C12.5 24.1536 18.0964 29.75 25 29.75Z" fill="white"/>
<path d="M25.002 29.9941C32.0403 29.9941 37.7461 24.2884 37.7461 17.25C37.7461 10.2116 32.0403 4.50586 25.002 4.50586C17.9636 4.50586 12.2578 10.2116 12.2578 17.25C12.2578 24.2884 17.9636 29.9941 25.002 29.9941Z" stroke="black" stroke-opacity="0.2" stroke-width="0.390625"/>
<path d="M24.9984 22.8504C28.0912 22.8504 30.5984 20.3432 30.5984 17.2504C30.5984 14.1576 28.0912 11.6504 24.9984 11.6504C21.9056 11.6504 19.3984 14.1576 19.3984 17.2504C19.3984 20.3432 21.9056 22.8504 24.9984 22.8504Z" fill="#FF9903"/>
</svg>
